# Blender v2.80 (sub 51) OBJ File: ''
# www.blender.org
mtllib grass_1.mtl
o Cylinder
v -0.292340 -0.090271 -0.097313
v -0.164894 2.095121 -0.106786
v 0.711998 0.000000 0.326732
v -0.790908 0.000000 0.530251
v 1.730152 -0.090271 0.739407
v 1.892801 2.095121 0.936272
v 1.201489 0.000000 1.692834
v 1.159296 0.000000 0.176798
v -0.066547 -0.090271 1.958044
v -0.187711 2.095121 1.917404
v -0.828174 0.000000 1.178023
v 0.636211 0.000000 1.572640
v 1.775991 0.000000 1.878291
v 3.919318 -0.090271 3.222031
v 3.973373 2.095121 3.471609
v 3.011800 0.000000 3.826117
v 3.670653 0.000000 2.460079
v 1.763620 -0.090271 3.479272
v 2.358634 2.095121 3.804330
v 1.445359 0.000000 2.436575
v 2.564883 0.000000 3.459712
v 3.961637 -0.090271 -0.894586
v 4.039118 2.095121 -0.792953
v 4.154312 0.000000 0.178441
v 3.163686 0.000000 -0.969953
v 4.364053 -0.090271 1.256841
v 4.287829 2.095121 1.500564
v 3.276605 0.000000 1.334066
v 4.524029 0.000000 0.471466
v 2.362439 -0.090271 0.416156
v 2.330383 2.095121 0.292444
v 2.600513 0.000000 -0.647719
v 3.068877 0.000000 0.794773
vt 1.000000 0.500000
vt 0.666667 1.000000
vt 0.666667 0.500000
vt 0.333333 1.000000
vt 0.333333 0.500000
vt -0.000000 1.000000
vt -0.000000 0.500000
vt 0.750000 0.490000
vt 0.957846 0.130000
vt 0.542154 0.130000
vt 1.000000 0.500000
vt 0.666667 1.000000
vt 0.666667 0.500000
vt 0.333333 1.000000
vt 0.333333 0.500000
vt -0.000000 1.000000
vt -0.000000 0.500000
vt 0.750000 0.490000
vt 0.957846 0.130000
vt 0.542154 0.130000
vt 1.000000 0.500000
vt 0.666667 0.500000
vt 0.666667 1.000000
vt 0.333333 0.500000
vt 0.333333 1.000000
vt -0.000000 0.500000
vt -0.000000 1.000000
vt 0.750000 0.490000
vt 0.542154 0.130000
vt 0.957846 0.130000
vt 1.000000 0.500000
vt 0.666667 1.000000
vt 0.666667 0.500000
vt 0.333333 1.000000
vt 0.333333 0.500000
vt -0.000000 1.000000
vt -0.000000 0.500000
vt 0.750000 0.490000
vt 0.957846 0.130000
vt 0.542154 0.130000
vt 1.000000 0.500000
vt 0.666667 0.500000
vt 0.666667 1.000000
vt 0.333333 0.500000
vt 0.333333 1.000000
vt -0.000000 0.500000
vt -0.000000 1.000000
vt 0.750000 0.490000
vt 0.542154 0.130000
vt 0.957846 0.130000
vt 1.000000 0.500000
vt 0.666667 0.500000
vt 0.666667 1.000000
vt 0.333333 0.500000
vt 0.333333 1.000000
vt -0.000000 0.500000
vt -0.000000 1.000000
vt 0.750000 0.490000
vt 0.542154 0.130000
vt 0.957846 0.130000
vt 1.000000 0.500000
vt 0.666667 0.500000
vt 0.666667 1.000000
vt 0.333333 0.500000
vt 0.333333 1.000000
vt -0.000000 0.500000
vt -0.000000 1.000000
vt 0.750000 0.490000
vt 0.542154 0.130000
vt 0.957846 0.130000
vt 1.000000 0.500000
vt 0.666667 1.000000
vt 0.666667 0.500000
vt 0.333333 1.000000
vt 0.333333 0.500000
vt -0.000000 1.000000
vt -0.000000 0.500000
vt 0.750000 0.490000
vt 0.957846 0.130000
vt 0.542154 0.130000
vn -0.2089 -0.6564 -0.7249
vn -0.0180 0.9860 -0.1660
vn 0.9125 -0.3665 0.1816
vn -0.7819 -0.3713 0.5008
vn 0.7205 -0.6790 -0.1407
vn 0.2395 0.9704 0.0291
vn -0.3089 -0.3661 0.8778
vn -0.4351 -0.3506 -0.8293
vn 0.0883 0.6564 -0.7492
vn 0.7709 0.3665 0.5210
vn 0.0476 -0.9860 -0.1600
vn -0.9148 0.3713 0.1588
vn 0.7046 -0.6790 0.2059
vn 0.1994 0.9704 0.1359
vn -0.6776 -0.3661 0.6378
vn -0.0056 -0.3506 -0.9365
vn 0.5171 0.6353 -0.5735
vn 0.5164 0.2811 0.8089
vn -0.1749 -0.9427 -0.2842
vn -0.8432 0.4953 -0.2088
vn -0.4935 0.6564 0.5706
vn -0.3457 0.3665 -0.8638
vn -0.1292 -0.9859 0.1057
vn 0.8463 0.3713 0.3819
vn -0.5111 0.6790 -0.5270
vn 0.9041 0.3661 -0.2201
vn -0.1063 -0.9704 -0.2166
vn -0.4575 0.3506 0.8171
vn -0.6760 -0.6564 0.3348
vn -0.1601 0.9860 0.0474
vn 0.0159 -0.3665 -0.9303
vn 0.6323 -0.3713 0.6800
usemtl None
s 1
f 1/1/1 2/2/2 3/3/3
f 3/3/3 2/4/2 4/5/4
f 4/5/4 2/6/2 1/7/1
f 1/8/1 3/9/3 4/10/4
f 5/11/5 6/12/6 7/13/7
f 7/13/7 6/14/6 8/15/8
f 8/15/8 6/16/6 5/17/5
f 5/18/5 7/19/7 8/20/8
f 9/21/9 11/22/10 10/23/11
f 11/22/10 12/24/12 10/25/11
f 12/24/12 9/26/9 10/27/11
f 9/28/9 12/29/12 11/30/10
f 14/31/13 15/32/14 16/33/15
f 16/33/15 15/34/14 17/35/16
f 17/35/16 15/36/14 14/37/13
f 14/38/13 16/39/15 17/40/16
f 18/41/17 20/42/18 19/43/19
f 20/42/18 21/44/20 19/45/19
f 21/44/20 18/46/17 19/47/19
f 18/48/17 21/49/20 20/50/18
f 22/51/21 24/52/22 23/53/23
f 24/52/22 25/54/24 23/55/23
f 25/54/24 22/56/21 23/57/23
f 22/58/21 25/59/24 24/60/22
f 26/61/25 28/62/26 27/63/27
f 28/62/26 29/64/28 27/65/27
f 29/64/28 26/66/25 27/67/27
f 26/68/25 29/69/28 28/70/26
f 30/71/29 31/72/30 32/73/31
f 32/73/31 31/74/30 33/75/32
f 33/75/32 31/76/30 30/77/29
f 30/78/29 32/79/31 33/80/32
