# Blender v2.80 (sub 51) OBJ File: ''
# www.blender.org
mtllib chain_part2.mtl
o chain_part2_Circle.001
v 0.332278 -0.105556 -1.116514
v -0.690792 -0.105556 -0.346236
v -0.710257 0.394444 -0.300042
v -0.961557 0.231761 -0.687852
v -0.900673 -0.105556 -0.854754
v -1.101730 0.290778 0.400978
v -0.575427 -0.105556 0.597751
v -0.362872 0.394444 0.851103
v -0.952928 -0.105556 0.469937
v -0.368056 0.394444 1.372356
v 0.095483 -0.105556 0.817968
v -0.302762 -0.105556 1.074538
v 0.390892 0.394444 0.477029
v 0.703560 0.394444 0.816550
v 0.174845 -0.105556 -0.067895
v 0.430353 0.394444 -0.254686
v 0.769210 0.394444 -0.646138
v 0.461927 -0.105556 0.759079
v 0.008563 -0.105556 -0.693757
v -0.027371 0.394444 -0.702823
v -0.199520 0.394444 -1.211455
v -0.302762 -0.105556 1.388830
vn 0.0000 -1.0000 -0.0000
vn 0.0000 1.0000 0.0000
vn -0.5837 0.2730 -0.7647
vn -0.1692 0.9843 0.0511
vn 0.2945 0.3294 -0.8971
vn -0.8809 0.4666 -0.0789
vn 0.4771 -0.0062 0.8789
vn 0.8978 -0.4385 0.0403
vn 0.4724 0.3487 -0.8095
vn -0.1924 -0.3767 -0.9061
vn -0.9616 -0.2655 -0.0702
vn -0.3226 0.9291 -0.1808
vn -0.4233 0.9001 -0.1033
vn 0.9691 -0.1230 -0.2140
vn -0.6987 -0.3291 0.6352
vn -0.1381 0.9904 -0.0014
vn -0.4198 -0.3288 -0.8460
vn 0.3985 -0.3687 0.8398
vn -0.8966 0.4401 -0.0484
vn -0.8308 0.2770 0.4827
vn 0.7764 -0.6280 -0.0537
usemtl None
s off
f 19//1 5//1 1//1
f 21//2 3//2 20//2
f 5//3 4//3 21//3
f 2//1 9//1 5//1
f 3//4 6//4 8//4
f 7//1 12//1 9//1
f 8//5 11//5 7//5
f 12//1 11//1 18//1
f 13//6 15//6 11//6
f 2//7 19//7 20//7 3//7
f 18//8 17//8 14//8
f 15//1 1//1 18//1
f 17//2 20//2 16//2
f 1//9 21//9 17//9
f 1//10 5//10 21//10
f 5//1 19//1 2//1
f 6//11 4//11 5//11 9//11
f 21//12 4//12 3//12
f 4//13 6//13 3//13
f 7//14 2//14 3//14 8//14
f 2//1 7//1 9//1
f 10//15 6//15 9//15 12//15
f 8//16 6//16 10//16
f 13//2 8//2 10//2 14//2
f 7//1 11//1 12//1
f 8//17 13//17 11//17
f 14//18 10//18 12//18 18//18
f 16//2 13//2 14//2 17//2
f 11//1 15//1 18//1
f 13//19 16//19 15//19
f 19//20 15//20 16//20 20//20
f 18//21 1//21 17//21
f 1//1 15//1 19//1
f 20//2 17//2 21//2
