# Blender v2.80 (sub 51) OBJ File: ''
# www.blender.org
mtllib chain_part1.mtl
o chain_part_Circle
v 0.463457 -0.250000 -0.986707
v -0.564449 -0.250000 -0.445014
v -0.584007 0.250000 -0.394947
v -0.836495 0.250000 -0.815275
v -0.775323 -0.250000 -0.996173
v -0.977330 0.250000 0.364855
v -0.448539 -0.250000 0.578129
v -0.234979 0.250000 0.852725
v -0.960760 -0.250000 0.439597
v -0.240188 0.250000 1.417686
v 0.225543 -0.250000 0.816812
v -0.174585 -0.250000 1.213451
v 0.522349 0.250000 0.447284
v 0.836495 0.250000 0.815275
v 0.629476 -0.250000 -0.143334
v 0.415100 0.250000 -0.739603
v 0.902456 0.250000 -0.770064
v 1.048493 -0.250000 0.385765
v 0.138213 -0.250000 -0.821675
v -0.070855 0.250000 -1.382784
vn 0.0000 -1.0000 0.0000
vn 0.0000 1.0000 0.0000
vn -0.5818 0.2128 -0.7850
vn 0.3125 0.3512 -0.8826
vn -0.8920 0.2522 -0.3753
vn 0.9315 0.3617 0.0388
vn -0.7639 0.3322 0.5532
vn 0.5300 -0.1006 -0.8420
vn 0.0060 -0.6170 -0.7870
vn -0.9917 -0.0506 -0.1183
vn 0.9313 -0.2547 -0.2605
vn -0.6551 -0.3578 0.6655
vn -0.4424 -0.3482 -0.8265
vn 0.5065 -0.4282 0.7484
vn -0.9486 -0.3045 0.0857
vn 0.7756 -0.5377 -0.3306
vn 0.4713 -0.0696 0.8792
vn -0.9890 -0.0748 -0.1277
vn 0.9924 0.0501 -0.1124
vn -0.8178 0.0585 0.5726
vn 0.4687 -0.2807 0.8376
vn 0.3091 -0.3183 0.8962
usemtl None
s off
f 19//1 5//1 1//1
f 20//2 3//2 16//2
f 5//3 4//3 20//3
f 2//1 9//1 5//1
f 3//2 6//2 8//2
f 7//1 12//1 9//1
f 8//4 11//4 7//4
f 12//1 11//1 18//1
f 13//5 15//5 11//5
f 18//6 17//6 14//6
f 15//1 1//1 18//1
f 16//7 19//7 15//7
f 1//8 20//8 17//8
f 1//9 5//9 20//9
f 5//1 19//1 2//1
f 4//10 9//10 6//10
f 20//2 4//2 3//2
f 4//2 6//2 3//2
f 7//11 3//11 8//11
f 2//1 7//1 9//1
f 10//12 9//12 12//12
f 8//2 6//2 10//2
f 13//2 10//2 14//2
f 7//1 11//1 12//1
f 8//13 13//13 11//13
f 14//14 12//14 18//14
f 13//2 17//2 16//2
f 11//1 15//1 18//1
f 13//15 16//15 15//15
f 18//16 1//16 17//16
f 1//1 15//1 19//1
f 19//17 3//17 2//17
f 16//2 17//2 20//2
f 4//18 5//18 9//18
f 7//19 2//19 3//19
f 10//20 6//20 9//20
f 13//2 8//2 10//2
f 14//21 10//21 12//21
f 13//2 14//2 17//2
f 19//22 16//22 3//22
