# Blender v2.80 (sub 51) OBJ File: ''
# www.blender.org
mtllib ground.mtl
o Cylinder_Cylinder.003
v 0.080801 -0.987684 -0.966584
v 0.289994 0.597461 -0.608654
v 0.620391 0.621740 -0.263679
v 0.625132 0.621740 0.252233
v 0.263679 0.621740 0.620391
v -0.252233 0.621740 0.625132
v -0.635441 0.597461 0.225326
v -0.608654 0.597461 -0.289994
v -0.263680 0.621740 -0.620391
v 0.631774 1.997570 -0.606450
v 0.606450 1.997570 0.631774
v -0.017907 1.997570 0.875556
v -0.875556 1.997570 -0.017907
v -0.607001 2.018991 -0.634654
v 0.740613 -0.987684 -0.626343
v 0.966584 -0.987684 0.080801
v 0.626343 -0.987684 0.740613
v -0.080801 -0.987684 0.966584
v -0.740613 -0.987684 0.626343
v -0.966584 -0.987684 -0.080801
v -0.626344 -0.987684 -0.740613
v 0.875556 1.997570 0.017906
v -0.631774 1.997570 0.606450
v 0.017906 1.997570 -0.875556
v -0.414668 -0.226288 0.630817
v -0.739270 -0.226288 0.152841
v 0.679364 1.303181 0.219791
v -0.152841 -0.226288 -0.739270
v -0.000000 -1.026285 -0.000000
v -0.635799 1.303181 0.324967
v 0.219791 1.303181 -0.679364
v 0.635798 1.303181 -0.324967
v 0.324967 1.303181 0.635799
v -0.679364 1.303181 -0.219791
v -0.219791 1.303181 0.679364
v -0.324967 1.303181 -0.635798
vt 1.000000 0.989583
vt 0.878535 0.989886
vt 0.992357 0.501391
vt 0.867357 0.501391
vt 0.753535 0.989886
vt 0.742357 0.501391
vt 0.628535 0.989886
vt 0.617357 0.501391
vt 0.503535 0.989886
vt 0.492357 0.501391
vt 0.378609 0.989583
vt 0.367357 0.501391
vt 0.437500 0.750000
vt 0.253609 0.989583
vt 0.242357 0.501391
vt 0.312500 0.750000
vt 0.812500 1.000000
vt 0.757196 1.000000
vt 0.882196 1.000000
vt 0.128535 0.989886
vt 0.117357 0.501391
vt 0.003609 0.989583
vt 0.000000 0.501391
vt 0.062500 0.750000
vt 0.437500 1.000000
vt 0.382196 1.000000
vt 0.507196 1.000000
vt 0.062500 1.000000
vt 0.007196 1.000000
vt 0.132196 1.000000
vt 0.937500 1.000000
vt 1.000000 1.000000
vt 0.687500 1.000000
vt 0.632196 1.000000
vt 0.312500 1.000000
vt 0.257196 1.000000
vt 0.562500 1.000000
vt 0.187500 1.000000
vt 0.760435 0.485678
vt 0.750000 0.250000
vt 0.590729 0.424028
vt 0.924028 0.409271
vt 0.985678 0.239565
vt 0.909271 0.075972
vt 0.739565 0.014322
vt 0.575972 0.090729
vt 0.514322 0.260435
vt 0.409894 0.423770
vt 0.013633 0.240170
vt 0.485936 0.259812
vt 0.240188 0.485936
vt 0.076230 0.409894
vt 0.259812 0.014064
vt 0.090106 0.076230
vt 0.423770 0.090106
vn 0.7187 0.0616 -0.6926
vn 0.4462 0.2283 -0.8653
vn 0.9970 0.0765 -0.0092
vn 0.9274 0.2283 -0.2964
vn 0.7115 0.0765 0.6985
vn 0.8653 0.2283 0.4462
vn 0.0092 0.0765 0.9970
vn 0.2964 0.2283 0.9274
vn -0.5653 0.2374 0.7900
vn -0.4502 0.1876 0.8730
vn -0.9583 0.2374 0.1589
vn -0.9356 0.1876 0.2990
vn 0.9590 -0.0632 0.2762
vn 0.9068 -0.1406 0.3975
vn -0.6926 0.0616 -0.7187
vn -0.8653 0.2283 -0.4462
vn -0.1589 0.2374 -0.9583
vn -0.2990 0.1876 -0.9356
vn -0.8768 -0.0677 0.4761
vn -0.9223 -0.1406 0.3601
vn 0.2834 -0.0677 -0.9566
vn 0.3975 -0.1406 -0.9068
vn 0.8734 -0.0632 -0.4828
vn 0.9223 -0.1406 -0.3601
vn 0.4828 -0.0632 0.8734
vn 0.3601 -0.1406 0.9223
vn -0.9566 -0.0676 -0.2836
vn -0.9060 -0.1399 -0.3994
vn -0.2762 -0.0632 0.9590
vn -0.3975 -0.1406 0.9068
vn -0.4828 -0.0632 -0.8734
vn -0.3603 -0.1405 -0.9222
vn -0.6429 0.1282 0.7552
vn -0.9908 0.1193 0.0637
vn 0.9813 -0.1605 0.1065
vn -0.0794 0.1282 -0.9886
vn -0.7726 -0.1649 0.6131
vn -0.0131 -0.9991 -0.0410
vn 0.0197 -0.9991 -0.0382
vn 0.0410 -0.9991 -0.0131
vn 0.0382 -0.9991 0.0197
vn 0.0131 -0.9991 0.0410
vn -0.0197 -0.9991 0.0382
vn -0.0410 -0.9991 0.0131
vn -0.0382 -0.9991 -0.0197
vn 0.0121 0.9999 0.0053
vn 0.0174 0.9998 -0.0068
vn 0.0182 0.9990 -0.0416
vn -0.0420 0.9990 0.0164
vn -0.0075 0.9998 0.0171
vn 0.0048 0.9999 0.0123
vn 0.1128 -0.1649 -0.9798
vn 0.7944 -0.1530 -0.5878
vn 0.6186 -0.1605 0.7692
vn -0.9759 -0.1565 -0.1519
vn -0.1065 -0.1605 0.9813
vn -0.5883 -0.1527 -0.7941
usemtl None
s off
f 2/1/1 3/2/1 1/3/1
f 3/2/2 15/4/2 1/3/2
f 3/2/3 4/5/3 15/4/3
f 4/5/4 16/6/4 15/4/4
f 4/5/5 5/7/5 16/6/5
f 5/7/6 17/8/6 16/6/6
f 5/7/7 6/9/7 17/8/7
f 6/9/8 18/10/8 17/8/8
f 7/11/9 19/12/9 25/13/9
f 25/13/10 19/12/10 18/10/10
f 8/14/11 20/15/11 26/16/11
f 26/16/12 20/15/12 19/12/12
f 4/5/13 27/17/13 11/18/13
f 27/17/14 22/19/14 11/18/14
f 8/14/15 9/20/15 20/15/15
f 9/20/16 21/21/16 20/15/16
f 2/22/17 1/23/17 28/24/17
f 28/24/18 1/23/18 21/21/18
f 7/11/19 30/25/19 13/26/19
f 30/25/20 23/27/20 13/26/20
f 2/22/21 31/28/21 10/29/21
f 31/28/22 24/30/22 10/29/22
f 3/2/23 32/31/23 22/19/23
f 32/31/24 10/32/24 22/19/24
f 5/7/25 33/33/25 12/34/25
f 33/33/26 11/18/26 12/34/26
f 8/14/27 34/35/27 14/36/27
f 34/35/28 13/26/28 14/36/28
f 6/9/29 35/37/29 23/27/29
f 35/37/30 12/34/30 23/27/30
f 9/20/31 36/38/31 24/30/31
f 36/38/32 14/36/32 24/30/32
f 25/13/33 18/10/33 6/9/33 7/11/33
f 26/16/34 19/12/34 7/11/34 8/14/34
f 22/19/35 27/17/35 4/5/35 3/2/35
f 28/24/36 21/21/36 9/20/36 2/22/36
f 23/27/37 30/25/37 7/11/37 6/9/37
f 1/39/38 29/40/38 21/41/38
f 15/42/39 29/40/39 1/39/39
f 16/43/40 29/40/40 15/42/40
f 17/44/41 29/40/41 16/43/41
f 18/45/42 29/40/42 17/44/42
f 19/46/43 29/40/43 18/45/43
f 20/47/44 29/40/44 19/46/44
f 21/41/45 29/40/45 20/47/45
f 22/48/46 14/49/46 11/50/46
f 10/51/47 14/49/47 22/48/47
f 24/52/48 14/49/48 10/51/48
f 23/53/49 14/49/49 13/54/49
f 12/55/50 14/49/50 23/53/50
f 11/50/51 14/49/51 12/55/51
f 24/30/52 31/28/52 2/22/52 9/20/52
f 10/32/53 32/31/53 3/2/53 2/1/53
f 11/18/54 33/33/54 5/7/54 4/5/54
f 13/26/55 34/35/55 8/14/55 7/11/55
f 12/34/56 35/37/56 6/9/56 5/7/56
f 14/36/57 36/38/57 9/20/57 8/14/57
